PathFileType	4	(X/Y/Z)	OpenSim_Sub10_EMGStiffKnee_Accel.trc
DataRate	CameraRate	NumFrames	NumMarkers	Units	OrigDataRate	OrigDataStartFrame	OrigNumFrames
100	100	24	8	m	100	5232	8371
Frame#	Time	torso_imu_offset_imu	pelvis_imu_offset_imu	tibia_r_imu_offset_imu	femur_r_imu_offset_imu	tibia_l_imu_offset_imu	femur_l_imu_offset_imu	toes_r_imu_offset_imu	toes_l_imu_offset_imu
				X1	Y1	Z1	X2	Y2	Z2	X3	Y3	Z3	X4	Y4	Z4	X5	Y5	Z5	X6	Y6	Z6	X7	Y7	Z7	X8		Y8	Z8	

5232	52.31000000	9.10069400	-1.27236900	5.55759700	8.40408700	2.84498200	3.88370800	9.86328300	1.63870600	-0.43679500	9.06059800	0.99025700	-0.63378000	10.95668200	-3.41670100	1.35438700	8.32790300	3.66905700	-0.00894200	4.66630600	-0.23595300	8.82676200	12.17961700	-0.72583900	10.79167100
5233	52.32000000	9.12617800	-1.27643000	5.57790100	8.36026800	2.78589400	3.92915100	10.02473600	1.51123200	-0.40534900	9.11078000	0.88687400	-0.62986900	10.05773200	-3.07079000	0.27018100	8.40685700	3.32311000	-0.04605800	5.15386400	-0.15144300	8.65313600	13.03632800	-0.59707100	9.92610500
5234	52.33000000	9.10261800	-1.22541800	5.60240800	8.34341700	2.70775900	3.98887500	10.21487300	1.15963700	-0.29071700	9.22267900	0.69376300	-0.55183500	9.34983200	-1.90154600	0.05134300	8.27616000	3.15285800	0.07480900	4.79297300	-0.05425700	8.81961000	14.26772500	-0.12117300	9.12508700
5235	52.34000000	9.10389800	-1.23709400	5.58992800	8.29746000	2.67816100	4.04050500	10.23284900	0.62211800	-0.19218800	9.40887900	0.51996300	-0.47869800	8.91208100	-1.38613400	0.50580900	8.16497100	3.28792100	0.17587300	4.79923200	-0.31007300	8.79809000	14.52520700	-1.06018800	7.17915900
5236	52.35000000	9.08264000	-1.31918000	5.50491600	8.32081300	2.69215600	4.06145800	10.05246100	0.08842000	0.06167300	9.53192700	0.38663800	-0.51332000	8.44484200	-0.43535000	0.59538500	8.45931700	3.62500900	0.27271900	4.63642900	-0.44970000	8.80916900	14.51083200	-0.68477600	5.22463800
5237	52.36000000	9.05222700	-1.41018900	5.61716600	8.33995900	2.73438200	3.99974900	9.79462500	-0.40951300	0.26914000	9.71166500	0.18977500	-0.64478100	8.28858300	1.56468400	0.98785600	9.01393700	4.31467800	0.63625900	4.89053300	-0.27997500	8.57159500	14.75869300	0.83471800	3.51287600
5238	52.37000000	9.12302300	-1.42911100	5.66419300	8.36230800	2.78652200	4.07955600	9.89263100	-0.88608600	0.35513500	9.68788500	-0.01721800	-0.73335700	8.80148100	3.16999100	1.48737600	9.24658200	5.06395200	1.10116900	4.84511800	0.34718300	9.09953900	14.57536800	1.63201800	2.02160900
5239	52.38000000	9.17340600	-1.35364000	5.65227800	8.40530000	2.84864200	4.00094500	10.23594700	-0.74740900	0.03498600	9.60562100	-0.31306500	-0.65008700	9.50139600	3.07590200	1.66300900	9.21118000	5.58417600	1.23874400	4.59593500	-0.07710900	9.17894800	13.14872100	1.30065700	0.82750500
5240	52.39000000	9.30009400	-1.30424000	5.59546000	8.49821300	2.88387100	3.79059000	10.73114700	-0.19487900	0.01289300	9.74853200	-0.52496700	-0.51650600	9.51185200	1.89732900	1.79901300	8.98957100	5.45913500	1.10551700	4.64007200	-0.38242300	9.03847900	11.83485200	0.76045500	0.58004300
5241	52.40000000	9.42478900	-1.29141500	5.59937600	8.62500000	2.84592000	3.59939600	10.95315800	0.46106700	-0.28651000	9.95144300	-0.58829400	-0.54963500	8.99130700	0.62093800	1.73569200	8.64084000	5.00682600	1.01099700	4.87801400	-0.33007400	8.91237000	11.10834100	1.14820400	1.68786600
5242	52.41000000	9.52290800	-1.37067100	5.65819500	8.80796400	2.95233500	3.30777000	10.62159200	0.82821600	-0.11699800	9.99239300	-0.47146400	-0.54773700	8.71751100	-0.18702700	1.56954300	8.43613500	4.50731700	0.95997200	5.16005900	0.05540500	8.82701800	10.90949500	2.23082800	3.43667900
5243	52.42000000	9.64466000	-1.36159400	5.71762900	8.84978800	3.00272200	3.05000900	10.12231100	0.95634100	0.13699300	9.81644700	-0.30550300	-0.45542200	8.80808200	-0.62152300	1.52693500	8.26472800	4.01310700	0.82449100	4.84807400	0.10672900	9.00181800	10.64756400	2.87925600	4.98687600
5244	52.43000000	9.76319500	-1.37963100	5.82040100	8.83211200	3.16320400	2.83469500	9.92733300	0.82443700	0.30135600	9.65308300	-0.07854500	-0.34034700	8.95127200	-0.98254800	1.34497300	7.94418600	3.41572600	0.57128100	4.80481900	0.10095600	8.99481700	10.42544400	3.05519100	6.09127100
5245	52.44000000	9.90022800	-1.38411800	5.99581800	8.87180200	3.27617200	2.71336600	10.01628800	0.92828900	0.23150900	9.47138200	0.02149600	-0.27922100	8.88216800	-1.35525800	1.05428900	7.71980200	3.02501300	0.28047800	4.74547800	0.25445300	9.11006000	9.80806100	3.25495500	6.57261900
5246	52.45000000	9.98449300	-1.22173600	6.13855100	8.92059400	3.51337500	2.51008700	10.49387100	0.89156400	0.57602200	9.57854400	0.13692600	-0.27745500	8.76225800	-1.42249100	0.75222000	7.55745800	2.82558000	0.12990000	5.09173000	1.07955600	9.55465200	8.63549800	2.57257200	6.23070100
5247	52.46000000	9.99315700	-1.12261800	6.24513900	8.98362700	3.61118900	2.31315700	10.84901200	0.91371600	0.84933300	9.87087300	0.13222200	-0.40439900	8.78534200	-1.28442300	0.61175400	7.45907100	2.77607700	-0.00713800	4.89123800	0.06069600	8.95047400	7.42586600	1.86707100	5.51164500
5248	52.47000000	9.90187100	-1.08678300	6.31432700	9.01429500	3.75704900	2.05569000	10.78312300	0.56525300	1.07375700	10.09177700	-0.05152200	-0.52970900	8.71668500	-1.33490600	0.51856000	7.41765300	2.78556200	-0.24204500	4.89775500	0.29164000	9.11163700	7.12106900	1.06599700	5.23004300
5249	52.48000000	9.79057000	-1.09926600	6.24043100	8.93897800	3.79605500	1.91944300	10.53427300	0.16799800	1.03183200	10.18004700	-0.28886600	-0.54924500	8.28128900	-1.63345600	0.47527900	7.46955600	2.59959500	-0.66600400	4.87067000	0.55393200	9.32726000	8.07040600	1.06101800	5.70949800
5250	52.49000000	9.50550800	-1.14935200	6.16879400	8.80366300	3.71973500	1.79032100	10.48818100	0.11847900	1.09400500	10.13546700	-0.58357000	-0.46206500	7.74999000	-1.75915700	0.61877500	7.35666500	2.52758200	-0.92154600	5.09851400	0.25439000	8.96106200	7.57603200	2.45622500	5.93917800
5251	52.50000000	9.24061700	-1.18088300	6.11526500	8.59517000	3.61705900	2.01108200	10.76955400	0.23647000	1.29606900	10.18078800	-0.88253400	-0.50394700	7.57593800	-2.64214900	1.07284300	7.23017000	2.39488300	-0.53682100	5.04995100	0.17524300	9.18182200	6.92163300	8.62418100	0.66196800
5252	52.51000000	9.24275500	-1.35671300	6.12822500	8.65107300	3.27303200	2.78887100	11.12902500	0.23936300	1.10750300	10.31359600	-1.16354000	-0.52985200	8.80410100	-2.36038200	0.07157700	7.76499600	2.39066500	-0.22860900	4.77273800	0.51936600	9.69150300	-4.39041200	-10.18071400	0.16555700
5253	52.52000000	9.65449800	-1.51157200	6.50963100	9.22406300	2.68791900	3.73513000	11.68638600	-0.11418200	0.82024900	10.59523300	-1.56769800	-0.50535500	12.44078800	-1.14792700	2.37551200	9.64322900	2.83042200	0.20096600	4.70017100	0.23956300	9.59218700	10.69490500	-5.67301300	21.32783600
5254	52.53000000	10.14865900	-1.35006700	6.88499400	10.33116200	1.95936100	4.86067100	12.09175700	-0.68065900	1.34481700	10.90727000	-2.00429400	-0.55310500	14.83040100	-1.12703700	4.98278700	13.19011400	3.56530700	0.61788900	4.84437700	0.05522800	9.88078000	13.35951500	-12.46458500	19.43285700
5255	52.54000000	11.09816700	-0.92915700	7.23387700	11.48012700	0.60438600	6.43356100	12.55190100	-1.50500000	1.21293900	11.07000900	-2.25720400	-0.43790100	16.38080800	0.45095600	6.97634500	19.66947400	4.88551300	-0.06212000	4.49305600	0.12057000	10.19550600	13.05509600	-11.78449900	14.23867100
